<?xml version="1.0" encoding="UTF-8"?>
<svg width="700pt" height="700pt" version="1.1" viewBox="0 0 700 700" xmlns="http://www.w3.org/2000/svg" xmlns:xlink="http://www.w3.org/1999/xlink">
 <defs>
  <symbol id="u" overflow="visible">
   <path d="m9.1562-0.54688c-0.48047 0.24219-0.97656 0.42188-1.4844 0.54688-0.51172 0.125-1.043 0.1875-1.5938 0.1875-1.6562 0-2.9688-0.46094-3.9375-1.3906-0.96875-0.92578-1.4531-2.1797-1.4531-3.7656 0-1.5938 0.48438-2.8516 1.4531-3.7812 0.96875-0.92578 2.2812-1.3906 3.9375-1.3906 0.55078 0 1.082 0.0625 1.5938 0.1875 0.50781 0.125 1.0039 0.3125 1.4844 0.5625v2.0625c-0.48047-0.33203-0.95312-0.57031-1.4219-0.71875-0.46094-0.15625-0.94531-0.23438-1.4531-0.23438-0.91797 0-1.6406 0.29688-2.1719 0.89062-0.52344 0.58594-0.78125 1.3906-0.78125 2.4219s0.25781 1.8398 0.78125 2.4219c0.53125 0.58594 1.2539 0.875 2.1719 0.875 0.50781 0 0.99219-0.070313 1.4531-0.21875 0.46875-0.15625 0.94141-0.39453 1.4219-0.71875z"/>
  </symbol>
  <symbol id="e" overflow="visible">
   <path d="m6.6875-5.4375c-0.21094-0.09375-0.41797-0.16016-0.625-0.20312-0.19922-0.050781-0.40234-0.078125-0.60938-0.078125-0.61719 0-1.0898 0.19922-1.4219 0.59375-0.33594 0.38672-0.5 0.94922-0.5 1.6875v3.4375h-2.3906v-7.4688h2.3906v1.2344c0.3125-0.48828 0.66406-0.84375 1.0625-1.0625 0.39453-0.22656 0.86719-0.34375 1.4219-0.34375 0.082031 0 0.17188 0.007813 0.26562 0.015625 0.09375 0 0.22656 0.011719 0.40625 0.03125z"/>
  </symbol>
  <symbol id="b" overflow="visible">
   <path d="m8.6094-3.75v0.67188h-5.5938c0.0625 0.5625 0.26562 0.98438 0.60938 1.2656s0.82812 0.42188 1.4531 0.42188c0.5 0 1.0156-0.070313 1.5469-0.21875 0.53125-0.15625 1.0703-0.38281 1.625-0.6875v1.8438c-0.5625 0.21094-1.1328 0.36719-1.7031 0.46875-0.5625 0.11328-1.125 0.17188-1.6875 0.17188-1.3555 0-2.4062-0.33594-3.1562-1.0156-0.74219-0.6875-1.1094-1.6562-1.1094-2.9062 0-1.207 0.36328-2.1602 1.0938-2.8594 0.73828-0.69531 1.7539-1.0469 3.0469-1.0469 1.1641 0 2.1016 0.35547 2.8125 1.0625 0.70703 0.69922 1.0625 1.6406 1.0625 2.8281zm-2.4688-0.79688c0-0.45703-0.13281-0.82031-0.39062-1.0938-0.26172-0.28125-0.60547-0.42188-1.0312-0.42188-0.46875 0-0.85156 0.13281-1.1406 0.39062-0.28125 0.26172-0.46094 0.63672-0.53125 1.125z"/>
  </symbol>
  <symbol id="d" overflow="visible">
   <path d="m4.5-3.3594c-0.5 0-0.875 0.085937-1.125 0.25-0.25 0.16797-0.375 0.41797-0.375 0.75 0 0.30469 0.097656 0.54297 0.29688 0.71875 0.19531 0.16797 0.47656 0.25 0.84375 0.25 0.44531 0 0.82031-0.16016 1.125-0.48438 0.3125-0.32031 0.46875-0.72656 0.46875-1.2188v-0.26562zm3.6406-0.90625v4.2656h-2.4062v-1.1094c-0.32422 0.46094-0.6875 0.79297-1.0938 1-0.39844 0.19531-0.88281 0.29688-1.4531 0.29688-0.77344 0-1.3984-0.22266-1.875-0.67188-0.48047-0.44531-0.71875-1.0312-0.71875-1.75 0-0.875 0.29688-1.5156 0.89062-1.9219 0.60156-0.41406 1.5508-0.625 2.8438-0.625h1.4062v-0.1875c0-0.375-0.15234-0.64844-0.45312-0.82812-0.29297-0.17578-0.75781-0.26562-1.3906-0.26562-0.51172 0-0.98438 0.054688-1.4219 0.15625-0.4375 0.10547-0.85156 0.25781-1.2344 0.45312v-1.8125c0.50781-0.125 1.0195-0.21875 1.5312-0.28125 0.51953-0.0625 1.0391-0.09375 1.5625-0.09375 1.3438 0 2.3125 0.26562 2.9062 0.79688 0.60156 0.53125 0.90625 1.3906 0.90625 2.5781z"/>
  </symbol>
  <symbol id="c" overflow="visible">
   <path d="m3.75-9.5938v2.125h2.4688v1.7031h-2.4688v3.1719c0 0.34375 0.066406 0.57812 0.20312 0.70312 0.14453 0.125 0.42188 0.1875 0.82812 0.1875h1.2344v1.7031h-2.0625c-0.9375 0-1.6055-0.19531-2-0.59375-0.39844-0.39453-0.59375-1.0625-0.59375-2v-3.1719h-1.1719v-1.7031h1.1719v-2.125z"/>
  </symbol>
  <symbol id="k" overflow="visible">
   <path d="m6.2344-6.375v-4h2.3906v10.375h-2.3906v-1.0781c-0.33594 0.4375-0.69922 0.76172-1.0938 0.96875-0.39844 0.19531-0.85547 0.29688-1.375 0.29688-0.91797 0-1.6719-0.36328-2.2656-1.0938-0.59375-0.72656-0.89062-1.6719-0.89062-2.8281 0-1.1445 0.29688-2.082 0.89062-2.8125 0.59375-0.72656 1.3477-1.0938 2.2656-1.0938 0.51953 0 0.97656 0.10547 1.375 0.3125 0.39453 0.19922 0.75781 0.51562 1.0938 0.95312zm-1.5781 4.8281c0.50781 0 0.89844-0.17969 1.1719-0.54688 0.26953-0.375 0.40625-0.92188 0.40625-1.6406 0-0.70703-0.13672-1.25-0.40625-1.625-0.27344-0.375-0.66406-0.5625-1.1719-0.5625-0.51172 0-0.90234 0.1875-1.1719 0.5625-0.26172 0.375-0.39062 0.91797-0.39062 1.625 0 0.71875 0.12891 1.2656 0.39062 1.6406 0.26953 0.36719 0.66016 0.54688 1.1719 0.54688z"/>
  </symbol>
  <symbol id="j" overflow="visible">
   <path d="m5.125-1.5469c0.50781 0 0.89453-0.17969 1.1562-0.54688 0.26953-0.375 0.40625-0.92188 0.40625-1.6406 0-0.70703-0.13672-1.25-0.40625-1.625-0.26172-0.375-0.64844-0.5625-1.1562-0.5625-0.51172 0-0.90625 0.19531-1.1875 0.57812-0.27344 0.375-0.40625 0.91406-0.40625 1.6094 0 0.71094 0.13281 1.25 0.40625 1.625 0.28125 0.375 0.67578 0.5625 1.1875 0.5625zm-1.5938-4.8281c0.33203-0.4375 0.69531-0.75391 1.0938-0.95312 0.40625-0.20703 0.86719-0.3125 1.3906-0.3125 0.91406 0 1.6641 0.36719 2.25 1.0938 0.59375 0.73047 0.89062 1.668 0.89062 2.8125 0 1.1562-0.29688 2.1016-0.89062 2.8281-0.58594 0.73047-1.3359 1.0938-2.25 1.0938-0.52344 0-0.98438-0.10156-1.3906-0.29688-0.39844-0.20703-0.76172-0.53125-1.0938-0.96875v1.0781h-2.3906v-10.375h2.3906z"/>
  </symbol>
  <symbol id="g" overflow="visible">
   <path d="m0.17188-7.4688h2.375l2.0156 5.0625 1.7031-5.0625h2.3906l-3.1406 8.1719c-0.3125 0.83203-0.68359 1.4141-1.1094 1.75-0.41797 0.33203-0.96875 0.5-1.6562 0.5h-1.3906v-1.5781h0.75c0.40625 0 0.70312-0.0625 0.89062-0.1875s0.32812-0.35547 0.42188-0.6875l0.078125-0.21875z"/>
  </symbol>
  <symbol id="i" overflow="visible">
   <path d="m10.203-0.73438c-0.64844 0.3125-1.3125 0.54688-2 0.70312-0.6875 0.14453-1.3984 0.21875-2.125 0.21875-1.6562 0-2.9688-0.46094-3.9375-1.3906-0.96875-0.92578-1.4531-2.1797-1.4531-3.7656 0-1.6016 0.48828-2.8633 1.4688-3.7812 0.98828-0.92578 2.3438-1.3906 4.0625-1.3906 0.65625 0 1.2852 0.0625 1.8906 0.1875 0.61328 0.125 1.1875 0.3125 1.7188 0.5625v2.0625c-0.55469-0.32031-1.1055-0.5625-1.6562-0.71875-0.54297-0.15625-1.0898-0.23438-1.6406-0.23438-1.0234 0-1.8125 0.28906-2.375 0.85938-0.55469 0.57422-0.82812 1.3906-0.82812 2.4531 0 1.0547 0.26562 1.8672 0.79688 2.4375 0.53906 0.57422 1.3008 0.85938 2.2812 0.85938 0.26953 0 0.51953-0.015625 0.75-0.046875 0.22656-0.03125 0.42969-0.082031 0.60938-0.15625v-1.9375h-1.5625v-1.7188h4z"/>
  </symbol>
  <symbol id="f" overflow="visible">
   <path d="m8.6562-4.5469v4.5469h-2.4062v-3.4844c0-0.64453-0.015625-1.0859-0.046875-1.3281-0.023437-0.25-0.070313-0.42969-0.14062-0.54688-0.09375-0.15625-0.22656-0.27344-0.39062-0.35938-0.15625-0.082031-0.33594-0.125-0.53125-0.125-0.5 0-0.89844 0.19531-1.1875 0.57812-0.28125 0.38672-0.42188 0.91797-0.42188 1.5938v3.6719h-2.3906v-7.4688h2.3906v1.0938c0.36328-0.4375 0.74219-0.75391 1.1406-0.95312 0.40625-0.20703 0.85156-0.3125 1.3438-0.3125 0.86328 0 1.5195 0.26562 1.9688 0.79688 0.44531 0.52344 0.67188 1.2891 0.67188 2.2969z"/>
  </symbol>
  <symbol id="t" overflow="visible">
   <path d="m1.25-9.9531h2.5781v3.625l3.6875-3.625h2.9844l-4.7969 4.7188 5.2969 5.2344h-3.2188l-3.9531-3.9219v3.9219h-2.5781z"/>
  </symbol>
  <symbol id="h" overflow="visible">
   <path d="m8.6562-4.5469v4.5469h-2.4062v-3.4688c0-0.65625-0.015625-1.1016-0.046875-1.3438-0.023437-0.25-0.070313-0.42969-0.14062-0.54688-0.09375-0.15625-0.22656-0.27344-0.39062-0.35938-0.15625-0.082031-0.33594-0.125-0.53125-0.125-0.5 0-0.89844 0.19531-1.1875 0.57812-0.28125 0.38672-0.42188 0.91797-0.42188 1.5938v3.6719h-2.3906v-10.375h2.3906v4c0.36328-0.4375 0.74219-0.75391 1.1406-0.95312 0.40625-0.20703 0.85156-0.3125 1.3438-0.3125 0.86328 0 1.5195 0.26562 1.9688 0.79688 0.44531 0.52344 0.67188 1.2891 0.67188 2.2969z"/>
  </symbol>
  <symbol id="a" overflow="visible">
   <path d="m4.7031-5.9375c-0.53125 0-0.9375 0.19531-1.2188 0.57812-0.27344 0.375-0.40625 0.91797-0.40625 1.625 0 0.71875 0.13281 1.2734 0.40625 1.6562 0.28125 0.375 0.6875 0.5625 1.2188 0.5625 0.51953 0 0.91406-0.1875 1.1875-0.5625 0.28125-0.38281 0.42188-0.9375 0.42188-1.6562 0-0.70703-0.14062-1.25-0.42188-1.625-0.27344-0.38281-0.66797-0.57812-1.1875-0.57812zm0-1.7031c1.2812 0 2.2812 0.35156 3 1.0469 0.72656 0.6875 1.0938 1.6406 1.0938 2.8594 0 1.2305-0.36719 2.1953-1.0938 2.8906-0.71875 0.6875-1.7188 1.0312-3 1.0312-1.293 0-2.3047-0.34375-3.0312-1.0312-0.71875-0.69531-1.0781-1.6602-1.0781-2.8906 0-1.2188 0.35938-2.1719 1.0781-2.8594 0.72656-0.69531 1.7383-1.0469 3.0312-1.0469z"/>
  </symbol>
  <symbol id="s" overflow="visible">
   <path d="m1.25-9.9531h2.5781v8.0156h4.5v1.9375h-7.0781z"/>
  </symbol>
  <symbol id="r" overflow="visible">
   <path d="m6.0625-10.375v1.5625h-1.3281c-0.33594 0-0.57031 0.0625-0.70312 0.1875-0.13672 0.125-0.20312 0.33984-0.20312 0.64062v0.51562h2.0469v1.7031h-2.0469v5.7656h-2.375v-5.7656h-1.1875v-1.7031h1.1875v-0.51562c0-0.8125 0.22266-1.4102 0.67188-1.7969 0.45703-0.39453 1.1602-0.59375 2.1094-0.59375z"/>
  </symbol>
  <symbol id="q" overflow="visible">
   <path d="m8.0625-6.2344c0.30078-0.45703 0.66016-0.80469 1.0781-1.0469 0.41406-0.23828 0.875-0.35938 1.375-0.35938 0.85156 0 1.5039 0.26562 1.9531 0.79688 0.45703 0.52344 0.6875 1.2891 0.6875 2.2969v4.5469h-2.4062v-3.8906-0.1875c0.007812-0.0625 0.015625-0.14844 0.015625-0.26562 0-0.53125-0.078125-0.91016-0.23438-1.1406-0.15625-0.23828-0.40625-0.35938-0.75-0.35938-0.46094 0-0.8125 0.1875-1.0625 0.5625-0.24219 0.36719-0.36719 0.90234-0.375 1.6094v3.6719h-2.4062v-3.8906c0-0.83203-0.074219-1.3633-0.21875-1.5938-0.13672-0.23828-0.38672-0.35938-0.75-0.35938-0.46094 0-0.8125 0.1875-1.0625 0.5625s-0.375 0.91406-0.375 1.6094v3.6719h-2.3906v-7.4688h2.3906v1.0938c0.28906-0.42578 0.625-0.74219 1-0.95312 0.38281-0.20703 0.80469-0.3125 1.2656-0.3125 0.51953 0 0.97656 0.125 1.375 0.375 0.39453 0.24219 0.69141 0.58594 0.89062 1.0312z"/>
  </symbol>
  <symbol id="p" overflow="visible">
   <path d="m1.25-9.9531h2.875l3.6094 6.8281v-6.8281h2.4375v9.9531h-2.8594l-3.625-6.8281v6.8281h-2.4375z"/>
  </symbol>
  <symbol id="o" overflow="visible">
   <path d="m1.0625-2.9062v-4.5625h2.4062v0.75c0 0.40625-0.007812 0.91797-0.015625 1.5312v1.2188c0 0.59375 0.015625 1.0273 0.046875 1.2969 0.03125 0.26172 0.082031 0.45312 0.15625 0.57812 0.10156 0.15625 0.23438 0.27734 0.39062 0.35938 0.15625 0.085937 0.33594 0.125 0.54688 0.125 0.48828 0 0.875-0.19141 1.1562-0.57812 0.28906-0.38281 0.4375-0.91406 0.4375-1.5938v-3.6875h2.3906v7.4688h-2.3906v-1.0781c-0.36719 0.4375-0.75 0.76172-1.1562 0.96875-0.39844 0.19531-0.83594 0.29688-1.3125 0.29688-0.86719 0-1.5273-0.25781-1.9844-0.78125-0.44922-0.53125-0.67188-1.3008-0.67188-2.3125z"/>
  </symbol>
  <symbol id="n" overflow="visible">
   <path d="m1.25-9.9531h4.2656c1.2695 0 2.2422 0.28125 2.9219 0.84375 0.67578 0.5625 1.0156 1.3672 1.0156 2.4062 0 1.043-0.33984 1.8438-1.0156 2.4062-0.67969 0.5625-1.6523 0.84375-2.9219 0.84375h-1.6875v3.4531h-2.5781zm2.5781 1.8594v2.7812h1.4062c0.5 0 0.88281-0.11719 1.1562-0.35938 0.26953-0.25 0.40625-0.59375 0.40625-1.0312 0-0.44531-0.13672-0.78906-0.40625-1.0312-0.27344-0.23828-0.65625-0.35938-1.1562-0.35938z"/>
  </symbol>
  <symbol id="m" overflow="visible">
   <path d="m1.1406-7.4688h2.3906v7.3281c0 1-0.24219 1.7656-0.71875 2.2969-0.48047 0.53125-1.1719 0.79688-2.0781 0.79688h-1.1875v-1.5781h0.40625c0.45703 0 0.76953-0.10547 0.9375-0.3125 0.16406-0.19922 0.25-0.60156 0.25-1.2031zm0-2.9062h2.3906v1.9531h-2.3906z"/>
  </symbol>
  <symbol id="l" overflow="visible">
   <path d="m7.1875-7.2344v1.9531c-0.33594-0.22656-0.66406-0.39453-0.98438-0.5-0.32422-0.10156-0.66406-0.15625-1.0156-0.15625-0.66797 0-1.1875 0.19531-1.5625 0.57812-0.36719 0.38672-0.54688 0.92969-0.54688 1.625 0 0.69922 0.17969 1.2461 0.54688 1.6406 0.375 0.38672 0.89453 0.57812 1.5625 0.57812 0.375 0 0.72656-0.050781 1.0625-0.15625 0.33203-0.11328 0.64453-0.28125 0.9375-0.5v1.9531c-0.375 0.13672-0.75781 0.23438-1.1406 0.29688-0.38672 0.070313-0.77344 0.10938-1.1562 0.10938-1.3438 0-2.3984-0.34375-3.1562-1.0312-0.76172-0.6875-1.1406-1.6484-1.1406-2.8906 0-1.2266 0.37891-2.1875 1.1406-2.875 0.75781-0.6875 1.8125-1.0312 3.1562-1.0312 0.38281 0 0.76562 0.039063 1.1406 0.10938 0.38281 0.0625 0.76953 0.16406 1.1562 0.29688z"/>
  </symbol>
 </defs>
 <g>
  <path d="m506.12 58.176c1.8086 33.891-24.203 62.832-58.098 64.645-33.895 1.8086-62.84-24.203-64.648-58.094-1.8086-33.895 24.203-62.836 58.098-64.645 33.895-1.8086 62.836 24.199 64.648 58.094"/>
  <path d="m545.63 375.87c-3.9414-8.2305-11.031-14.559-19.648-17.539l-10.293-3.5586c-5.1367 6.4492-13.004 10.34-21.383 10.34-4.7578 0-9.4648-1.2617-13.617-3.6484-18.48-10.617-33.844-22.543-46.641-34.914l-16.246-5.6133c-0.33984-4.1562-0.52734-8.3594-0.61328-12.594-16.797-20.328-27.523-40.727-34.297-57.562-14.359-35.539-16.562-66.352-16.598-81.551 0-3.3906 0.12109-5.3672 0.14062-5.7305 0.89453-14.344 12.867-25.594 27.242-25.594 0.57031 0 1.1445 0.015625 1.7227 0.054688 15.035 0.9375 26.504 13.938 25.562 28.969l-0.011719 0.30469c-0.011719 0.42578-0.027344 1.0938-0.027344 1.9844-0.011719 5.7852 0.58203 23.871 7.3867 46.273 1.9219-9.4102 3.8281-18.34 5.4648-26.484 7.9727-27.148-2.1211-59.742-25.414-65.672-23.293-5.9297-57.164 6.5664-71.117 46.504-18.863 55.023-23.031 90.879-16.266 151.61 0.875 4.6211 2.0039 8.7812 3.3203 12.574l-163.09 160.66c-13.438 13.23-13.598 34.855-0.35938 48.293 13.234 13.438 34.855 13.598 48.293 0.36719l167.03-164.53 94.801 32.77-36.992 102.69c-6.3945 17.746 2.8047 37.309 20.551 43.707 3.8203 1.375 7.7305 2.0312 11.57 2.0312 13.992 0 27.117-8.6602 32.137-22.586l48.715-135.23c3.0859-8.5898 2.6133-18.082-1.3242-26.316z"/>
  <path d="m415.51 166.96c0.007813-0.17188 0.011719-0.29688 0.015626-0.375 0.75-12.051-8.4062-22.426-20.449-23.18-12.051-0.75-22.426 8.4062-23.18 20.449-0.027343 0.41406-0.13281 2.2773-0.13281 5.3594 0.027343 12.086 1.5078 43.156 16.207 79.523 6.5859 16.371 16.047 33.828 29.211 50.82 8.3867 10.828 18.293 21.461 29.949 31.512 10.602 9.1367 22.613 17.797 36.285 25.652 3.4375 1.9805 7.1914 2.9219 10.891 2.9219 5.8945 0 11.645-2.4141 15.816-6.8008 1.1758-1.2383 2.25-2.6055 3.1406-4.1484 6.0234-10.457 2.4336-23.82-8.0234-29.844-43.055-24.91-64.844-57.359-76.762-86.527-0.82422-2.0312-1.5859-4.0391-2.3125-6.0391-9.6641-26.562-10.715-49.379-10.691-57.074 0.003906-1.043 0.027344-1.8047 0.035156-2.25z"/>
  <use x="151.03125" y="600.980469" xlink:href="#u"/>
  <use x="161.054688" y="600.980469" xlink:href="#e"/>
  <use x="167.789062" y="600.980469" xlink:href="#b"/>
  <use x="177.054688" y="600.980469" xlink:href="#d"/>
  <use x="186.273438" y="600.980469" xlink:href="#c"/>
  <use x="192.800781" y="600.980469" xlink:href="#b"/>
  <use x="202.066406" y="600.980469" xlink:href="#k"/>
  <use x="216.601562" y="600.980469" xlink:href="#j"/>
  <use x="226.378906" y="600.980469" xlink:href="#g"/>
  <use x="240.039062" y="600.980469" xlink:href="#i"/>
  <use x="251.25" y="600.980469" xlink:href="#d"/>
  <use x="260.46875" y="600.980469" xlink:href="#f"/>
  <use x="274.949219" y="600.980469" xlink:href="#t"/>
  <use x="285.53125" y="600.980469" xlink:href="#h"/>
  <use x="295.257812" y="600.980469" xlink:href="#a"/>
  <use x="304.640625" y="600.980469" xlink:href="#a"/>
  <use x="314.027344" y="600.980469" xlink:href="#f"/>
  <use x="328.507812" y="600.980469" xlink:href="#s"/>
  <use x="337.210938" y="600.980469" xlink:href="#d"/>
  <use x="346.429688" y="600.980469" xlink:href="#g"/>
  <use x="151.03125" y="614.640625" xlink:href="#r"/>
  <use x="156.972656" y="614.640625" xlink:href="#e"/>
  <use x="163.707031" y="614.640625" xlink:href="#a"/>
  <use x="173.09375" y="614.640625" xlink:href="#q"/>
  <use x="192.082031" y="614.640625" xlink:href="#c"/>
  <use x="198.613281" y="614.640625" xlink:href="#h"/>
  <use x="208.335938" y="614.640625" xlink:href="#b"/>
  <use x="222.355469" y="614.640625" xlink:href="#p"/>
  <use x="233.789062" y="614.640625" xlink:href="#a"/>
  <use x="243.171875" y="614.640625" xlink:href="#o"/>
  <use x="252.898438" y="614.640625" xlink:href="#f"/>
  <use x="267.378906" y="614.640625" xlink:href="#n"/>
  <use x="277.390625" y="614.640625" xlink:href="#e"/>
  <use x="284.125" y="614.640625" xlink:href="#a"/>
  <use x="293.507812" y="614.640625" xlink:href="#m"/>
  <use x="298.191406" y="614.640625" xlink:href="#b"/>
  <use x="307.457031" y="614.640625" xlink:href="#l"/>
  <use x="315.554688" y="614.640625" xlink:href="#c"/>
 </g>
</svg>
