<svg xmlns="http://www.w3.org/2000/svg" xmlns:xlink="http://www.w3.org/1999/xlink" xmlns:serif="http://www.serif.com/" viewBox="0 0 32 40" version="1.1" xml:space="preserve" style="" x="0px" y="0px" fill-rule="evenodd" clip-rule="evenodd" stroke-linejoin="round" stroke-miterlimit="2"><path d="M23,10.5l-14,0l-0,-8.5c-0,-0.276 -0.224,-0.5 -0.5,-0.5c-0.276,0 -0.5,0.224 -0.5,0.5l-0,8.5l-0.5,0l0,-4c0,-0.276 -0.224,-0.5 -0.5,-0.5l-2,0c-0.276,0 -0.5,0.224 -0.5,0.5c0,0 -1.5,0 -1.5,0c-0.276,0 -0.5,0.224 -0.5,0.5l0,3.5l-0.5,0c-0.276,0 -0.5,0.224 -0.5,0.5c0,0.276 0.224,0.5 0.5,0.5l0.5,0l0,3.5c0,0.276 0.224,0.5 0.5,0.5l1.5,0c0,0.276 0.224,0.5 0.5,0.5l2,0c0.276,0 0.5,-0.224 0.5,-0.5l0,-4l0.5,0l-0,16.5l-2,-0c-0.276,0 -0.5,0.224 -0.5,0.5l0,1.5c0,0.276 0.224,0.5 0.5,0.5l5,-0c0.276,-0 0.5,-0.224 0.5,-0.5l-0,-1.5c-0,-0.276 -0.224,-0.5 -0.5,-0.5l-2,-0l-0,-4.5l14,0l0,4.5l-2,-0c-0.276,0 -0.5,0.224 -0.5,0.5l0,1.5c0,0.276 0.224,0.5 0.5,0.5l5,-0c0.276,-0 0.5,-0.224 0.5,-0.5l0,-1.5c0,-0.276 -0.224,-0.5 -0.5,-0.5l-2,-0l0,-16.5l0.5,0l0,4c0,0.276 0.224,0.5 0.5,0.5l2,0c0.276,0 0.5,-0.224 0.5,-0.5l1.5,0c0.276,0 0.5,-0.224 0.5,-0.5l0,-3.5l0.5,0c0.276,0 0.5,-0.224 0.5,-0.5c0,-0.276 -0.224,-0.5 -0.5,-0.5l-0.5,0l0,-3.5c0,-0.276 -0.224,-0.5 -0.5,-0.5l-1.5,0c0,-0.276 -0.224,-0.5 -0.5,-0.5l-2,0c-0.276,0 -0.5,0.224 -0.5,0.5l0,4l-0.5,0l0,-8.5c-0,-0.276 -0.224,-0.5 -0.5,-0.5c-0.276,0 -0.5,0.224 -0.5,0.5l0,8.5Zm-14,1l-0,11l14,0l0,-11l-14,0Z"/><text x="0" y="47" fill="#000000" font-size="5px" font-weight="bold" font-family="'Helvetica Neue', Helvetica, Arial-Unicode, Arial, Sans-serif">Created by Singlar</text><text x="0" y="52" fill="#000000" font-size="5px" font-weight="bold" font-family="'Helvetica Neue', Helvetica, Arial-Unicode, Arial, Sans-serif">from the Noun Project</text></svg>