<svg xmlns="http://www.w3.org/2000/svg" xmlns:xlink="http://www.w3.org/1999/xlink" xmlns:serif="http://www.serif.com/" viewBox="0 0 32 40" version="1.1" xml:space="preserve" style="" x="0px" y="0px" fill-rule="evenodd" clip-rule="evenodd" stroke-linejoin="round" stroke-miterlimit="2"><path d="M27.5,9.001l0,13.998c0.017,0.001 0.035,0.001 0.052,0.001l1.869,-0c0.596,-0 1.079,-0.483 1.079,-1.079l-0,-11.842c-0,-0.596 -0.483,-1.079 -1.079,-1.079l-1.869,0c-0.017,0 -0.035,0 -0.052,0.001Zm-23,13.998l0,-13.998c-0.017,-0.001 -0.035,-0.001 -0.052,-0.001l-1.869,0c-0.596,0 -1.079,0.483 -1.079,1.079l-0,11.842c0,0.596 0.483,1.079 1.079,1.079l1.869,-0c0.017,-0 0.035,-0 0.052,-0.001Zm1,-13.994l0,13.99c0.035,0.003 0.07,0.005 0.106,0.005l2.626,-0c0.596,-0 1.079,-0.483 1.079,-1.079l-0,-11.842c-0,-0.596 -0.483,-1.079 -1.079,-1.079l-2.626,0c-0.036,0 -0.071,0.002 -0.106,0.005Zm21,13.99l0,-13.99c-0.035,-0.003 -0.07,-0.005 -0.106,-0.005l-2.626,0c-0.596,0 -1.079,0.483 -1.079,1.079l0,11.842c0,0.596 0.483,1.079 1.079,1.079l2.626,-0c0.036,-0 0.071,-0.002 0.106,-0.005Zm-16.689,-8.88l-0,4.027l12.378,-0l0,-4.027l-12.378,-0Z"/><text x="0" y="47" fill="#000000" font-size="5px" font-weight="bold" font-family="'Helvetica Neue', Helvetica, Arial-Unicode, Arial, Sans-serif">Created by Singlar</text><text x="0" y="52" fill="#000000" font-size="5px" font-weight="bold" font-family="'Helvetica Neue', Helvetica, Arial-Unicode, Arial, Sans-serif">from the Noun Project</text></svg>