<svg xmlns="http://www.w3.org/2000/svg" xmlns:xlink="http://www.w3.org/1999/xlink" xmlns:serif="http://www.serif.com/" viewBox="0 0 32 40" version="1.1" xml:space="preserve" style="" x="0px" y="0px" fill-rule="evenodd" clip-rule="evenodd" stroke-linejoin="round" stroke-miterlimit="2"><path d="M5.5,23.375c-1.294,0 -2.437,0.409 -3.149,1.015c-0.546,0.466 -0.851,1.051 -0.851,1.672c-0,0.622 0.305,1.207 0.851,1.673c0.712,0.606 1.855,1.015 3.149,1.015c1.294,0 2.437,-0.409 3.149,-1.015c0.546,-0.466 0.851,-1.051 0.851,-1.672c-0,-0.622 -0.305,-1.207 -0.851,-1.673c-0.712,-0.606 -1.855,-1.015 -3.149,-1.015Zm4.499,-17.5l20.001,0c0.276,-0 0.5,0.224 0.5,0.5l0,21.875c-0,0.276 -0.224,0.5 -0.5,0.5l-22.053,-0c0.395,-0.176 0.741,-0.392 1.026,-0.635c0.669,-0.57 1.027,-1.292 1.027,-2.053l-0,-20.124c-0,-0.021 -0,-0.042 -0.001,-0.063Zm-8.499,18.7c0.145,-0.201 0.322,-0.39 0.527,-0.565c0.786,-0.67 2.044,-1.135 3.473,-1.135c1.429,0 2.687,0.465 3.473,1.135c0.205,0.175 0.382,0.365 0.527,0.565l-0,-18.638c-0,-0.621 -0.305,-1.206 -0.851,-1.672c-0.712,-0.606 -1.855,-1.015 -3.149,-1.015c-1.289,0 -2.428,0.406 -3.14,1.008c-0.546,0.462 -0.854,1.043 -0.86,1.66l0,18.657Z"/><text x="0" y="47" fill="#000000" font-size="5px" font-weight="bold" font-family="'Helvetica Neue', Helvetica, Arial-Unicode, Arial, Sans-serif">Created by Singlar</text><text x="0" y="52" fill="#000000" font-size="5px" font-weight="bold" font-family="'Helvetica Neue', Helvetica, Arial-Unicode, Arial, Sans-serif">from the Noun Project</text></svg>